<mxfile host="app.diagrams.net" modified="2023-03-21T09:17:58.908Z" agent="5.0 (Windows NT 10.0; Win64; x64) AppleWebKit/537.36 (KHTML, like Gecko) Chrome/111.0.0.0 Safari/537.36" etag="wYFPJeP7N3nkhLNu6FPD" version="21.0.8" type="github">
  <diagram name="Page-1" id="evwyyu63XnPhhxUZ8PFy">
    <mxGraphModel dx="1313" dy="726" grid="1" gridSize="10" guides="1" tooltips="1" connect="1" arrows="1" fold="1" page="1" pageScale="1" pageWidth="850" pageHeight="1100" math="0" shadow="0">
      <root>
        <mxCell id="0" />
        <mxCell id="1" parent="0" />
        <mxCell id="JP_Y2YidS544UzaVhqE--6" value="" style="rounded=1;whiteSpace=wrap;html=1;fillColor=#fff2cc;strokeColor=#d6b656;" parent="1" vertex="1">
          <mxGeometry x="210" y="860" width="460" height="190" as="geometry" />
        </mxCell>
        <mxCell id="JP_Y2YidS544UzaVhqE--7" value="" style="rounded=0;whiteSpace=wrap;html=1;fillColor=#ffe6cc;strokeColor=#d79b00;" parent="1" vertex="1">
          <mxGeometry x="160" y="400" width="550" height="360" as="geometry" />
        </mxCell>
        <mxCell id="JP_Y2YidS544UzaVhqE--8" value="" style="rounded=0;whiteSpace=wrap;html=1;fillColor=#ffcc99;strokeColor=#36393d;" parent="1" vertex="1">
          <mxGeometry x="280" y="620" width="120" height="60" as="geometry" />
        </mxCell>
        <mxCell id="JP_Y2YidS544UzaVhqE--9" value="" style="rounded=0;whiteSpace=wrap;html=1;fillColor=#ffcc99;strokeColor=#36393d;" parent="1" vertex="1">
          <mxGeometry x="460" y="620" width="120" height="60" as="geometry" />
        </mxCell>
        <mxCell id="JP_Y2YidS544UzaVhqE--10" value="" style="rounded=0;whiteSpace=wrap;html=1;fillColor=#ffcc99;strokeColor=#36393d;" parent="1" vertex="1">
          <mxGeometry x="280" y="520" width="120" height="60" as="geometry" />
        </mxCell>
        <mxCell id="JP_Y2YidS544UzaVhqE--11" value="" style="rounded=0;whiteSpace=wrap;html=1;fillColor=#ffcc99;strokeColor=#36393d;" parent="1" vertex="1">
          <mxGeometry x="460" y="520" width="120" height="60" as="geometry" />
        </mxCell>
        <mxCell id="JP_Y2YidS544UzaVhqE--12" value="" style="shape=internalStorage;whiteSpace=wrap;html=1;backgroundOutline=1;fillColor=#FF968F;strokeColor=#36393d;" parent="1" vertex="1">
          <mxGeometry x="425" y="890" width="150" height="110" as="geometry" />
        </mxCell>
        <mxCell id="JP_Y2YidS544UzaVhqE--13" value="" style="shape=internalStorage;whiteSpace=wrap;html=1;backgroundOutline=1;fillColor=#FF968F;strokeColor=#36393d;" parent="1" vertex="1">
          <mxGeometry x="320" y="930" width="80" height="70" as="geometry" />
        </mxCell>
        <mxCell id="JP_Y2YidS544UzaVhqE--16" value="&lt;b&gt;&lt;font style=&quot;font-size: 15px;&quot;&gt;Oracle database&lt;/font&gt;&lt;/b&gt;" style="text;html=1;strokeColor=none;fillColor=none;align=center;verticalAlign=middle;whiteSpace=wrap;rounded=0;" parent="1" vertex="1">
          <mxGeometry x="490" y="1020" width="210" height="30" as="geometry" />
        </mxCell>
        <mxCell id="JP_Y2YidS544UzaVhqE--39" style="edgeStyle=orthogonalEdgeStyle;rounded=0;orthogonalLoop=1;jettySize=auto;html=1;entryX=0;entryY=0.5;entryDx=0;entryDy=0;entryPerimeter=0;" parent="1" source="JP_Y2YidS544UzaVhqE--18" target="JP_Y2YidS544UzaVhqE--24" edge="1">
          <mxGeometry relative="1" as="geometry" />
        </mxCell>
        <mxCell id="JP_Y2YidS544UzaVhqE--18" value="&lt;b&gt;&lt;font style=&quot;font-size: 17px;&quot;&gt;Alice&lt;/font&gt;&lt;/b&gt;" style="ellipse;whiteSpace=wrap;html=1;fillColor=#e1d5e7;strokeColor=#9673a6;" parent="1" vertex="1">
          <mxGeometry x="20" y="416" width="120" height="80" as="geometry" />
        </mxCell>
        <mxCell id="JP_Y2YidS544UzaVhqE--19" value="&lt;b&gt;&lt;font style=&quot;font-size: 17px;&quot;&gt;RUM&lt;/font&gt;&lt;/b&gt;" style="shape=parallelogram;perimeter=parallelogramPerimeter;whiteSpace=wrap;html=1;fixedSize=1;fillColor=#f8cecc;strokeColor=#b85450;" parent="1" vertex="1">
          <mxGeometry x="730" y="560" width="120" height="60" as="geometry" />
        </mxCell>
        <mxCell id="JP_Y2YidS544UzaVhqE--20" value="" style="endArrow=classic;html=1;rounded=0;entryX=0.145;entryY=0.145;entryDx=0;entryDy=0;entryPerimeter=0;" parent="1" target="JP_Y2YidS544UzaVhqE--24" edge="1">
          <mxGeometry width="50" height="50" relative="1" as="geometry">
            <mxPoint x="280" y="240" as="sourcePoint" />
            <mxPoint x="280" y="380" as="targetPoint" />
          </mxGeometry>
        </mxCell>
        <mxCell id="JP_Y2YidS544UzaVhqE--21" value="" style="shape=image;html=1;verticalAlign=top;verticalLabelPosition=bottom;labelBackgroundColor=#ffffff;imageAspect=0;aspect=fixed;image=https://cdn0.iconfinder.com/data/icons/devices-42/512/Normal_LCD-128.png" parent="1" vertex="1">
          <mxGeometry x="212" y="140" width="128" height="128" as="geometry" />
        </mxCell>
        <mxCell id="JP_Y2YidS544UzaVhqE--22" value="" style="shape=image;html=1;verticalAlign=top;verticalLabelPosition=bottom;labelBackgroundColor=#ffffff;imageAspect=0;aspect=fixed;image=https://cdn0.iconfinder.com/data/icons/devices-42/512/Normal_LCD-128.png" parent="1" vertex="1">
          <mxGeometry x="540" y="140" width="128" height="128" as="geometry" />
        </mxCell>
        <mxCell id="JP_Y2YidS544UzaVhqE--23" value="" style="endArrow=classic;html=1;rounded=0;entryX=0.855;entryY=0.145;entryDx=0;entryDy=0;entryPerimeter=0;" parent="1" target="JP_Y2YidS544UzaVhqE--24" edge="1">
          <mxGeometry width="50" height="50" relative="1" as="geometry">
            <mxPoint x="600" y="240" as="sourcePoint" />
            <mxPoint x="560" y="390" as="targetPoint" />
          </mxGeometry>
        </mxCell>
        <mxCell id="JP_Y2YidS544UzaVhqE--24" value="" style="outlineConnect=0;dashed=0;verticalLabelPosition=bottom;verticalAlign=top;align=center;html=1;shape=mxgraph.aws3.application_load_balancer;fillColor=#F58534;gradientColor=none;" parent="1" vertex="1">
          <mxGeometry x="400" y="420" width="69" height="72" as="geometry" />
        </mxCell>
        <mxCell id="JP_Y2YidS544UzaVhqE--25" value="&lt;b&gt;&lt;font style=&quot;font-size: 18px;&quot;&gt;MB UI&lt;/font&gt;&lt;/b&gt;" style="text;html=1;strokeColor=none;fillColor=none;align=center;verticalAlign=middle;whiteSpace=wrap;rounded=0;" parent="1" vertex="1">
          <mxGeometry x="240" y="120" width="60" height="30" as="geometry" />
        </mxCell>
        <mxCell id="JP_Y2YidS544UzaVhqE--26" value="&lt;b&gt;&lt;font style=&quot;font-size: 18px;&quot;&gt;DT UI&lt;/font&gt;&lt;/b&gt;" style="text;html=1;strokeColor=none;fillColor=none;align=center;verticalAlign=middle;whiteSpace=wrap;rounded=0;" parent="1" vertex="1">
          <mxGeometry x="580" y="120" width="60" height="30" as="geometry" />
        </mxCell>
        <mxCell id="JP_Y2YidS544UzaVhqE--27" value="&lt;b&gt;&lt;font style=&quot;font-size: 16px;&quot;&gt;FE (MB)&lt;/font&gt;&lt;/b&gt;" style="text;html=1;strokeColor=none;fillColor=none;align=center;verticalAlign=middle;whiteSpace=wrap;rounded=0;" parent="1" vertex="1">
          <mxGeometry x="310" y="535" width="70" height="30" as="geometry" />
        </mxCell>
        <mxCell id="JP_Y2YidS544UzaVhqE--28" value="&lt;b&gt;&lt;font style=&quot;font-size: 15px;&quot;&gt;FE (DT)&lt;/font&gt;&lt;/b&gt;" style="text;html=1;strokeColor=none;fillColor=none;align=center;verticalAlign=middle;whiteSpace=wrap;rounded=0;" parent="1" vertex="1">
          <mxGeometry x="490" y="535" width="60" height="30" as="geometry" />
        </mxCell>
        <mxCell id="JP_Y2YidS544UzaVhqE--29" value="&lt;b&gt;&lt;font style=&quot;font-size: 15px;&quot;&gt;BE (MB)&lt;/font&gt;&lt;/b&gt;" style="text;html=1;strokeColor=none;fillColor=none;align=center;verticalAlign=middle;whiteSpace=wrap;rounded=0;" parent="1" vertex="1">
          <mxGeometry x="305" y="635" width="70" height="30" as="geometry" />
        </mxCell>
        <mxCell id="JP_Y2YidS544UzaVhqE--30" value="&lt;b&gt;&lt;font style=&quot;font-size: 15px;&quot;&gt;BE (MB)&lt;/font&gt;&lt;/b&gt;" style="text;html=1;strokeColor=none;fillColor=none;align=center;verticalAlign=middle;whiteSpace=wrap;rounded=0;" parent="1" vertex="1">
          <mxGeometry x="485" y="635" width="70" height="30" as="geometry" />
        </mxCell>
        <mxCell id="JP_Y2YidS544UzaVhqE--31" value="" style="endArrow=classic;html=1;rounded=0;exitX=0.145;exitY=0.855;exitDx=0;exitDy=0;exitPerimeter=0;entryX=0.5;entryY=0;entryDx=0;entryDy=0;" parent="1" source="JP_Y2YidS544UzaVhqE--24" target="JP_Y2YidS544UzaVhqE--10" edge="1">
          <mxGeometry width="50" height="50" relative="1" as="geometry">
            <mxPoint x="400" y="540" as="sourcePoint" />
            <mxPoint x="450" y="490" as="targetPoint" />
          </mxGeometry>
        </mxCell>
        <mxCell id="JP_Y2YidS544UzaVhqE--32" value="" style="endArrow=classic;html=1;rounded=0;entryX=0.5;entryY=0;entryDx=0;entryDy=0;exitX=0.855;exitY=0.855;exitDx=0;exitDy=0;exitPerimeter=0;" parent="1" source="JP_Y2YidS544UzaVhqE--24" target="JP_Y2YidS544UzaVhqE--11" edge="1">
          <mxGeometry width="50" height="50" relative="1" as="geometry">
            <mxPoint x="400" y="540" as="sourcePoint" />
            <mxPoint x="450" y="490" as="targetPoint" />
          </mxGeometry>
        </mxCell>
        <mxCell id="JP_Y2YidS544UzaVhqE--33" value="" style="endArrow=classic;html=1;rounded=0;exitX=0.5;exitY=1;exitDx=0;exitDy=0;entryX=0.5;entryY=0;entryDx=0;entryDy=0;" parent="1" source="JP_Y2YidS544UzaVhqE--10" target="JP_Y2YidS544UzaVhqE--8" edge="1">
          <mxGeometry width="50" height="50" relative="1" as="geometry">
            <mxPoint x="400" y="540" as="sourcePoint" />
            <mxPoint x="450" y="490" as="targetPoint" />
          </mxGeometry>
        </mxCell>
        <mxCell id="JP_Y2YidS544UzaVhqE--34" value="" style="endArrow=classic;html=1;rounded=0;exitX=0.5;exitY=1;exitDx=0;exitDy=0;entryX=0.5;entryY=0;entryDx=0;entryDy=0;" parent="1" source="JP_Y2YidS544UzaVhqE--11" target="JP_Y2YidS544UzaVhqE--9" edge="1">
          <mxGeometry width="50" height="50" relative="1" as="geometry">
            <mxPoint x="400" y="540" as="sourcePoint" />
            <mxPoint x="450" y="490" as="targetPoint" />
          </mxGeometry>
        </mxCell>
        <mxCell id="JP_Y2YidS544UzaVhqE--35" value="" style="endArrow=classic;html=1;rounded=0;exitX=0.5;exitY=1;exitDx=0;exitDy=0;entryX=0.25;entryY=0;entryDx=0;entryDy=0;" parent="1" source="JP_Y2YidS544UzaVhqE--8" target="JP_Y2YidS544UzaVhqE--13" edge="1">
          <mxGeometry width="50" height="50" relative="1" as="geometry">
            <mxPoint x="400" y="740" as="sourcePoint" />
            <mxPoint x="450" y="690" as="targetPoint" />
            <Array as="points">
              <mxPoint x="340" y="800" />
            </Array>
          </mxGeometry>
        </mxCell>
        <mxCell id="JP_Y2YidS544UzaVhqE--36" value="" style="endArrow=classic;html=1;rounded=0;exitX=0.5;exitY=1;exitDx=0;exitDy=0;entryX=0.636;entryY=0.013;entryDx=0;entryDy=0;entryPerimeter=0;" parent="1" source="JP_Y2YidS544UzaVhqE--9" target="JP_Y2YidS544UzaVhqE--12" edge="1">
          <mxGeometry width="50" height="50" relative="1" as="geometry">
            <mxPoint x="400" y="740" as="sourcePoint" />
            <mxPoint x="520" y="860" as="targetPoint" />
          </mxGeometry>
        </mxCell>
        <mxCell id="JP_Y2YidS544UzaVhqE--37" value="&lt;b&gt;&lt;font style=&quot;font-size: 14px;&quot;&gt;PROD Cluster&lt;/font&gt;&lt;/b&gt;" style="text;html=1;strokeColor=none;fillColor=none;align=center;verticalAlign=middle;whiteSpace=wrap;rounded=0;" parent="1" vertex="1">
          <mxGeometry x="615" y="730" width="95" height="30" as="geometry" />
        </mxCell>
        <mxCell id="JP_Y2YidS544UzaVhqE--40" value="&lt;b&gt;&lt;font style=&quot;font-size: 17px;&quot;&gt;SSO, LoadBalancer&lt;/font&gt;&lt;/b&gt;" style="text;html=1;strokeColor=none;fillColor=none;align=center;verticalAlign=middle;whiteSpace=wrap;rounded=0;" parent="1" vertex="1">
          <mxGeometry x="480" y="441" width="170" height="30" as="geometry" />
        </mxCell>
        <mxCell id="JP_Y2YidS544UzaVhqE--45" value="" style="edgeStyle=segmentEdgeStyle;endArrow=classic;html=1;curved=0;rounded=0;endSize=8;startSize=8;entryX=0.25;entryY=0;entryDx=0;entryDy=0;" parent="1" target="JP_Y2YidS544UzaVhqE--12" edge="1">
          <mxGeometry width="50" height="50" relative="1" as="geometry">
            <mxPoint x="340" y="800" as="sourcePoint" />
            <mxPoint x="450" y="780" as="targetPoint" />
          </mxGeometry>
        </mxCell>
        <mxCell id="JP_Y2YidS544UzaVhqE--46" value="&lt;i&gt;&lt;b&gt;New Vals&lt;/b&gt;&lt;/i&gt;" style="text;html=1;strokeColor=none;fillColor=none;align=center;verticalAlign=middle;whiteSpace=wrap;rounded=0;" parent="1" vertex="1">
          <mxGeometry x="340" y="950" width="60" height="30" as="geometry" />
        </mxCell>
        <mxCell id="JP_Y2YidS544UzaVhqE--47" value="&lt;i&gt;&lt;b&gt;&lt;font style=&quot;font-size: 15px;&quot;&gt;OG Tables&lt;/font&gt;&lt;/b&gt;&lt;/i&gt;" style="text;html=1;strokeColor=none;fillColor=none;align=center;verticalAlign=middle;whiteSpace=wrap;rounded=0;" parent="1" vertex="1">
          <mxGeometry x="465" y="940" width="85" height="30" as="geometry" />
        </mxCell>
        <mxCell id="JP_Y2YidS544UzaVhqE--48" value="&lt;font size=&quot;1&quot; color=&quot;#3333ff&quot; style=&quot;&quot;&gt;&lt;b style=&quot;font-size: 15px;&quot;&gt;https://repa.dhc.corpintra.net&lt;/b&gt;&lt;/font&gt;" style="text;html=1;strokeColor=none;fillColor=none;align=center;verticalAlign=middle;whiteSpace=wrap;rounded=0;" parent="1" vertex="1">
          <mxGeometry x="110" y="300" width="210" height="30" as="geometry" />
        </mxCell>
        <mxCell id="JP_Y2YidS544UzaVhqE--49" value="&lt;b&gt;&lt;font color=&quot;#3333ff&quot; style=&quot;font-size: 15px;&quot;&gt;https://repa.dhc.corpintra.net/dtag&lt;/font&gt;&lt;/b&gt;" style="text;html=1;strokeColor=none;fillColor=none;align=center;verticalAlign=middle;whiteSpace=wrap;rounded=0;" parent="1" vertex="1">
          <mxGeometry x="575" y="300" width="210" height="30" as="geometry" />
        </mxCell>
        <mxCell id="JP_Y2YidS544UzaVhqE--50" value="" style="edgeStyle=segmentEdgeStyle;endArrow=classic;html=1;curved=0;rounded=0;endSize=8;startSize=8;exitX=0.5;exitY=1;exitDx=0;exitDy=0;entryX=1;entryY=0.5;entryDx=0;entryDy=0;" parent="1" source="JP_Y2YidS544UzaVhqE--19" target="JP_Y2YidS544UzaVhqE--12" edge="1">
          <mxGeometry width="50" height="50" relative="1" as="geometry">
            <mxPoint x="400" y="730" as="sourcePoint" />
            <mxPoint x="450" y="680" as="targetPoint" />
            <Array as="points">
              <mxPoint x="780" y="620" />
              <mxPoint x="780" y="945" />
            </Array>
          </mxGeometry>
        </mxCell>
        <mxCell id="E2k6jSjs_fM94VRNYfXH-1" value="&lt;font size=&quot;1&quot; color=&quot;#660033&quot; style=&quot;&quot;&gt;&lt;b style=&quot;font-size: 30px;&quot;&gt;DTAG Transition&lt;/b&gt;&lt;/font&gt;" style="text;html=1;strokeColor=none;fillColor=none;align=center;verticalAlign=middle;whiteSpace=wrap;rounded=0;" vertex="1" parent="1">
          <mxGeometry x="180" y="40" width="540" height="30" as="geometry" />
        </mxCell>
      </root>
    </mxGraphModel>
  </diagram>
</mxfile>
